<svg width="97" height="19" viewBox="0 0 97 19" fill="none" xmlns="http://www.w3.org/2000/svg">
<path d="M8.04 13.008C8.04 14.328 7.416 15.168 6.168 15.168C4.896 15.168 4.248 14.304 4.224 12.888H0.864C0.864 16.272 3.072 18.168 6.216 18.168C9.312 18.168 11.424 16.32 11.424 13.008V1.248H8.04V13.008ZM27.7035 11.352C27.7035 7.152 24.7035 4.488 20.8635 4.488C17.0235 4.488 14.0235 7.152 14.0235 11.352C14.0235 15.528 16.9275 18.216 20.7675 18.216C24.6315 18.216 27.7035 15.528 27.7035 11.352ZM17.4315 11.352C17.4315 8.688 19.0395 7.416 20.8155 7.416C22.5915 7.416 24.2475 8.688 24.2475 11.352C24.2475 13.992 22.5435 15.288 20.7675 15.288C18.9675 15.288 17.4315 13.992 17.4315 11.352ZM33.0482 6.648V0.24H29.6882V18H33.0482V16.104C33.8642 17.256 35.3522 18.216 37.4402 18.216C40.8482 18.216 43.5122 15.456 43.5122 11.304C43.5122 7.152 40.8482 4.488 37.4402 4.488C35.4242 4.488 33.8642 5.424 33.0482 6.648ZM40.0802 11.304C40.0802 13.824 38.3762 15.264 36.5522 15.264C34.7522 15.264 33.0482 13.872 33.0482 11.352C33.0482 8.832 34.7522 7.44 36.5522 7.44C38.3762 7.44 40.0802 8.784 40.0802 11.304ZM58.3138 11.352C58.3138 7.152 55.3138 4.488 51.4738 4.488C47.6338 4.488 44.6338 7.152 44.6338 11.352C44.6338 15.528 47.5378 18.216 51.3778 18.216C55.2418 18.216 58.3138 15.528 58.3138 11.352ZM48.0418 11.352C48.0418 8.688 49.6498 7.416 51.4258 7.416C53.2018 7.416 54.8578 8.688 54.8578 11.352C54.8578 13.992 53.1538 15.288 51.3778 15.288C49.5778 15.288 48.0418 13.992 48.0418 11.352ZM63.6585 11.376C63.6585 8.808 64.8585 8.04 66.8505 8.04H67.7385V4.512C65.8905 4.512 64.4985 5.4 63.6585 6.768V4.704H60.2985V18H63.6585V11.376ZM75.2336 7.248C76.9616 7.248 78.3536 8.352 78.4016 10.104H72.0896C72.3536 8.28 73.6256 7.248 75.2336 7.248ZM81.5456 13.824H77.9216C77.4896 14.712 76.6976 15.432 75.2576 15.432C73.5776 15.432 72.2336 14.328 72.0656 12.36H81.7856C81.8576 11.928 81.8816 11.496 81.8816 11.064C81.8816 7.104 79.1696 4.488 75.3296 4.488C71.3936 4.488 68.6576 7.152 68.6576 11.352C68.6576 15.528 71.4656 18.216 75.3296 18.216C78.6176 18.216 80.8256 16.272 81.5456 13.824ZM82.9901 11.304C82.9901 15.456 85.6781 18.216 89.0621 18.216C91.1501 18.216 92.6381 17.256 93.4301 16.032V18H96.8381V0.24H93.4301V6.552C92.5181 5.304 90.8381 4.488 89.0861 4.488C85.6781 4.488 82.9901 7.152 82.9901 11.304ZM93.4541 11.352C93.4541 13.872 91.7741 15.264 89.9261 15.264C88.1261 15.264 86.4221 13.824 86.4221 11.304C86.4221 8.784 88.1261 7.44 89.9261 7.44C91.7741 7.44 93.4541 8.832 93.4541 11.352Z" fill="#232134"/>
</svg>
